@startuml

skinparam componentStyle uml2

package cargo {
	package "'CargoItineraryLegDeliveryRouteSpecification' Aggregate" <<Rectangle>> {
		class Cargo <<(A,#fffab8) Aggregate Root>> {
			TrackingId trackingId
			LocationShared origin
			RouteSpecification routeSpecification
			Itinerary itinerary
			Delivery delivery
		}
		class Delivery <<(V,DarkSeaGreen) Value Object>> {
			boolean misdirected
			Date eta
			boolean isUnloadedAtDestination
			Date calculatedAt
			TransportStatus transportStatus
			LocationShared lastKnownLocation
			Voyage currentVoyage
			HandlingActivity nextExpectedActivity
			RoutingStatus routingStatus
			HandlingEvent lastEvent
		}
		class HandlingActivity <<(V,DarkSeaGreen) Value Object>> {
			HandlingEvent.Type handlingEventType
			LocationShared location
			Voyage voyage
		}
		class Itinerary <<(V,DarkSeaGreen) Value Object>> {
			ItineraryNumber itineraryNumber
			List<Leg> legs
		}
		class Leg <<(V,DarkSeaGreen) Value Object>> {
			Date loadTime
			Date unloadTime
			Voyage voyage
			LocationShared loadLocation
			LocationShared unloadLocation
		}
		class RouteSpecification <<(V,DarkSeaGreen) Value Object>> {
			Date arrivalDeadline
			LocationShared origin
			LocationShared destination
		}
		enum TransportStatus {
			NOT_RECEIVED
			IN_PORT
			ONBOARD_CARRIER
			CLAIMED
			UNKNOWN
		}
		enum RoutingStatus {
			NOT_ROUTED
			ROUTED
			MISROUTED
		}
		class RoutingService <<(S,DarkSeaGreen) Service>> {
			List<Itinerary> fetchRoutesForSpecification(RouteSpecification routeSpecification)
		}
	}
}
package handling {
	package "'Handling' Aggregate" <<Rectangle>> {
		class HandlingEvent <<(A,#fffab8) Aggregate Root>> {
			Type handlingType
			Date completionTime
			Date registrationTime
			Voyage voyage
			LocationShared location
			Cargo cargo
		}
		class HandlingHistory <<(V,DarkSeaGreen) Value Object>> {
			List<HandlingEvent> handlingEvents
		}
	}
}
HandlingEvent --> Cargo : cargo
HandlingHistory "1" *--> "*" HandlingEvent : handlingEvents
Delivery --> HandlingActivity : nextExpectedActivity
Itinerary "1" *--> "*" Leg : legs
Delivery --> TransportStatus : transportStatus
Cargo --> Delivery : delivery
Cargo --> Itinerary : itinerary
Delivery --> RoutingStatus : routingStatus
Delivery --> HandlingEvent : lastEvent
Cargo --> RouteSpecification : routeSpecification


@enduml
